<svg width="78" height="72" viewBox="0 0 78 72" fill="none" xmlns="http://www.w3.org/2000/svg">
<rect width="73" height="72" rx="36" fill="#FFF2F2"/>
<path d="M25.5 15.5L36.5 9L48 16L42 19.5V17.5L36.5 16V23L31 22.5V19.5L25.5 16.5V18H26V22H25V18H25.5V16.5V15.5Z" fill="#3084B5"/>
<path d="M25.5 16.5V18" stroke="#067FB3" stroke-width="0.1"/>
<path d="M42 17.5L36.5 15.5V23L42 22.7734V17.5Z" fill="#45B0E5"/>
<path d="M52.9593 23.6469C54.011 26.038 38.5538 31 38.5538 31L38.0538 31C37.5538 31 38.0538 30 38.0538 30C38.0538 30 49.053 21.1901 52.0784 22.7728C52.5856 23.0382 52.781 23.2416 52.9593 23.6469Z" fill="#2C88C7"/>
<path d="M22.3226 23.7084C21.2709 26.0995 36.7281 31.0615 36.7281 31.0615L37.2281 31.0615C37.7281 31.0615 37.2281 30.0615 37.2281 30.0615C37.2281 30.0615 26.2289 21.2516 23.2035 22.8344C22.6962 23.0997 22.5008 23.3031 22.3226 23.7084Z" fill="#45B0E5"/>
<path d="M37.0538 32.5C37.468 32.9142 37.6395 34 37.0538 34C36.5538 34 35.0538 33.605 34.5538 33.5C33.2025 33.2162 32.918 33.2123 31.5538 33C30.3802 32.8173 29.7293 32.6696 28.5538 32.5C26.8037 32.2476 25.8139 32.1681 24.0538 32C21.3255 31.7394 19.0538 32 17.0538 31.5C15.8408 31.1968 14.7413 30.2106 15.0538 29C15.2977 28.0547 16.0774 27.5 17.0538 27.5C19.0538 27.5 20.7293 27.6456 23.0538 28C25.6291 28.3926 27.0622 28.7393 29.5538 29.5C32.5708 30.4211 35.0537 30.5 37.0538 32.5Z" fill="#0071BC"/>
<path d="M38.9074 32.3846C38.5196 32.8307 38.359 34 38.9074 34C39.3755 34 40.7797 33.5746 41.2478 33.4615C42.5128 33.1559 42.7792 33.1517 44.0564 32.9231C45.1551 32.7264 45.7644 32.5672 46.865 32.3846C48.5033 32.1128 49.4299 32.0272 51.0778 31.8462C53.6319 31.5655 55.7587 31.8462 57.6311 31.3077C58.7666 30.9811 59.7959 29.9191 59.5034 28.6154C59.2751 27.5973 58.5451 27 57.6311 27C55.7587 27 54.19 27.1568 52.014 27.5385C49.603 27.9613 48.2614 28.3347 45.9288 29.1538C43.1042 30.1458 40.7798 30.2308 38.9074 32.3846Z" fill="#0071BC"/>
<path d="M16.5689 46V39.4545H19.1896C19.6712 39.4545 20.0728 39.5259 20.3945 39.6687C20.7163 39.8114 20.9581 40.0096 21.12 40.2631C21.282 40.5146 21.3629 40.8043 21.3629 41.1325C21.3629 41.3881 21.3118 41.6129 21.2095 41.8068C21.1072 41.9986 20.9666 42.1562 20.7876 42.2798C20.6108 42.4013 20.4084 42.4876 20.1804 42.5387V42.6026C20.4297 42.6133 20.663 42.6836 20.8803 42.8136C21.0998 42.9435 21.2777 43.1257 21.4141 43.3601C21.5504 43.5923 21.6186 43.8693 21.6186 44.1911C21.6186 44.5384 21.5323 44.8484 21.3597 45.1211C21.1893 45.3917 20.9368 45.6058 20.6023 45.7635C20.2678 45.9212 19.8555 46 19.3654 46H16.5689ZM17.9528 44.8686H19.081C19.4666 44.8686 19.7479 44.7951 19.9247 44.6481C20.1016 44.4989 20.19 44.3008 20.19 44.0536C20.19 43.8725 20.1463 43.7127 20.0589 43.5742C19.9716 43.4357 19.8469 43.3271 19.685 43.2482C19.5252 43.1694 19.3345 43.13 19.1129 43.13H17.9528V44.8686ZM17.9528 42.1935H18.9787C19.1683 42.1935 19.3366 42.1605 19.4837 42.0945C19.6328 42.0263 19.75 41.9304 19.8352 41.8068C19.9226 41.6832 19.9663 41.5352 19.9663 41.3626C19.9663 41.1261 19.8821 40.9354 19.7138 40.7905C19.5476 40.6456 19.3111 40.5732 19.0043 40.5732H17.9528V42.1935ZM23.855 39.4545V46H22.4935V39.4545H23.855ZM27.1637 46.0959C26.6673 46.0959 26.2379 45.9904 25.8757 45.7795C25.5156 45.5664 25.2376 45.2702 25.0415 44.891C24.8455 44.5096 24.7475 44.0675 24.7475 43.5646C24.7475 43.0575 24.8455 42.6143 25.0415 42.2351C25.2376 41.8537 25.5156 41.5575 25.8757 41.3466C26.2379 41.1335 26.6673 41.027 27.1637 41.027C27.6602 41.027 28.0884 41.1335 28.4485 41.3466C28.8107 41.5575 29.0898 41.8537 29.2859 42.2351C29.4819 42.6143 29.5799 43.0575 29.5799 43.5646C29.5799 44.0675 29.4819 44.5096 29.2859 44.891C29.0898 45.2702 28.8107 45.5664 28.4485 45.7795C28.0884 45.9904 27.6602 46.0959 27.1637 46.0959ZM27.1701 45.0412C27.396 45.0412 27.5845 44.9773 27.7358 44.8494C27.8871 44.7195 28.0011 44.5426 28.0778 44.3189C28.1566 44.0952 28.196 43.8406 28.196 43.555C28.196 43.2695 28.1566 43.0149 28.0778 42.7912C28.0011 42.5675 27.8871 42.3906 27.7358 42.2607C27.5845 42.1307 27.396 42.0657 27.1701 42.0657C26.9421 42.0657 26.7504 42.1307 26.5948 42.2607C26.4414 42.3906 26.3253 42.5675 26.2464 42.7912C26.1697 43.0149 26.1314 43.2695 26.1314 43.555C26.1314 43.8406 26.1697 44.0952 26.2464 44.3189C26.3253 44.5426 26.4414 44.7195 26.5948 44.8494C26.7504 44.9773 26.9421 45.0412 27.1701 45.0412ZM32.6832 46.0959C32.1868 46.0959 31.7575 45.9904 31.3952 45.7795C31.0352 45.5664 30.7571 45.2702 30.5611 44.891C30.3651 44.5096 30.267 44.0675 30.267 43.5646C30.267 43.0575 30.3651 42.6143 30.5611 42.2351C30.7571 41.8537 31.0352 41.5575 31.3952 41.3466C31.7575 41.1335 32.1868 41.027 32.6832 41.027C33.1797 41.027 33.608 41.1335 33.968 41.3466C34.3303 41.5575 34.6094 41.8537 34.8054 42.2351C35.0014 42.6143 35.0994 43.0575 35.0994 43.5646C35.0994 44.0675 35.0014 44.5096 34.8054 44.891C34.6094 45.2702 34.3303 45.5664 33.968 45.7795C33.608 45.9904 33.1797 46.0959 32.6832 46.0959ZM32.6896 45.0412C32.9155 45.0412 33.104 44.9773 33.2553 44.8494C33.4066 44.7195 33.5206 44.5426 33.5973 44.3189C33.6761 44.0952 33.7156 43.8406 33.7156 43.555C33.7156 43.2695 33.6761 43.0149 33.5973 42.7912C33.5206 42.5675 33.4066 42.3906 33.2553 42.2607C33.104 42.1307 32.9155 42.0657 32.6896 42.0657C32.4616 42.0657 32.2699 42.1307 32.1143 42.2607C31.9609 42.3906 31.8448 42.5675 31.766 42.7912C31.6893 43.0149 31.6509 43.2695 31.6509 43.555C31.6509 43.8406 31.6893 44.0952 31.766 44.3189C31.8448 44.5426 31.9609 44.7195 32.1143 44.8494C32.2699 44.9773 32.4616 45.0412 32.6896 45.0412ZM35.9847 46V41.0909H37.2823V41.957H37.3398C37.4421 41.6694 37.6126 41.4425 37.8512 41.2763C38.0898 41.1101 38.3754 41.027 38.7077 41.027C39.0444 41.027 39.331 41.1112 39.5675 41.2795C39.804 41.4457 39.9616 41.6715 40.0405 41.957H40.0916C40.1918 41.6758 40.3729 41.451 40.6349 41.2827C40.8991 41.1122 41.2113 41.027 41.5714 41.027C42.0295 41.027 42.4013 41.1729 42.6868 41.4648C42.9744 41.7546 43.1183 42.1658 43.1183 42.6985V46H41.7599V42.967C41.7599 42.6942 41.6875 42.4897 41.5426 42.3533C41.3977 42.217 41.2166 42.1488 40.9993 42.1488C40.7521 42.1488 40.5593 42.2276 40.4208 42.3853C40.2823 42.5408 40.2131 42.7464 40.2131 43.0021V46H38.8931V42.9382C38.8931 42.6974 38.8239 42.5057 38.6854 42.3629C38.549 42.2202 38.369 42.1488 38.1452 42.1488C37.994 42.1488 37.8576 42.1871 37.7362 42.2638C37.6168 42.3384 37.522 42.4439 37.4517 42.5803C37.3814 42.7145 37.3462 42.8722 37.3462 43.0533V46H35.9847ZM44.1937 46V41.0909H45.5552V46H44.1937ZM44.8777 40.4581C44.6752 40.4581 44.5016 40.391 44.3567 40.2567C44.214 40.1204 44.1426 39.9574 44.1426 39.7678C44.1426 39.5803 44.214 39.4194 44.3567 39.2852C44.5016 39.1488 44.6752 39.0806 44.8777 39.0806C45.0801 39.0806 45.2527 39.1488 45.3954 39.2852C45.5403 39.4194 45.6127 39.5803 45.6127 39.7678C45.6127 39.9574 45.5403 40.1204 45.3954 40.2567C45.2527 40.391 45.0801 40.4581 44.8777 40.4581ZM48.0074 43.1619V46H46.6459V41.0909H47.9434V41.957H48.001C48.1096 41.6715 48.2918 41.4457 48.5475 41.2795C48.8032 41.1112 49.1132 41.027 49.4775 41.027C49.8184 41.027 50.1157 41.1016 50.3692 41.2507C50.6228 41.3999 50.8199 41.6129 50.9605 41.8899C51.1011 42.1648 51.1714 42.4929 51.1714 42.8743V46H49.8099V43.1172C49.8121 42.8168 49.7354 42.5824 49.5798 42.4141C49.4243 42.2436 49.2101 42.1584 48.9374 42.1584C48.7542 42.1584 48.5922 42.1978 48.4516 42.2766C48.3131 42.3555 48.2045 42.4705 48.1256 42.6218C48.0489 42.771 48.0095 42.951 48.0074 43.1619ZM54.4561 47.9432C54.0151 47.9432 53.6369 47.8825 53.3216 47.761C53.0083 47.6417 52.7591 47.4787 52.5737 47.272C52.3883 47.0653 52.2679 46.8331 52.2125 46.5753L53.4718 46.4059C53.5101 46.5039 53.5708 46.5955 53.6539 46.6808C53.737 46.766 53.8468 46.8342 53.9831 46.8853C54.1216 46.9386 54.29 46.9652 54.4881 46.9652C54.7843 46.9652 55.0282 46.8928 55.22 46.7479C55.4139 46.6051 55.5108 46.3654 55.5108 46.0288V45.1307H55.4533C55.3936 45.267 55.3042 45.396 55.1848 45.5174C55.0655 45.6388 54.9121 45.7379 54.7246 45.8146C54.5371 45.8913 54.3134 45.9297 54.0534 45.9297C53.6848 45.9297 53.3493 45.8445 53.0467 45.674C52.7463 45.5014 52.5066 45.2383 52.3276 44.8846C52.1507 44.5288 52.0623 44.0792 52.0623 43.5359C52.0623 42.9798 52.1529 42.5153 52.334 42.1424C52.5151 41.7695 52.7559 41.4904 53.0563 41.305C53.3588 41.1197 53.6902 41.027 54.0502 41.027C54.3251 41.027 54.5552 41.0739 54.7406 41.1676C54.926 41.2592 55.0751 41.3743 55.188 41.5128C55.3031 41.6491 55.3915 41.7834 55.4533 41.9155H55.5044V41.0909H56.8564V46.0479C56.8564 46.4656 56.7541 46.815 56.5495 47.0962C56.345 47.3775 56.0616 47.5884 55.6994 47.729C55.3393 47.8718 54.9249 47.9432 54.4561 47.9432ZM54.4849 44.907C54.7044 44.907 54.8897 44.8526 55.041 44.744C55.1944 44.6332 55.3116 44.4755 55.3926 44.271C55.4757 44.0643 55.5172 43.8171 55.5172 43.5295C55.5172 43.2418 55.4767 42.9925 55.3958 42.7816C55.3148 42.5685 55.1976 42.4034 55.0442 42.2862C54.8908 42.169 54.7044 42.1104 54.4849 42.1104C54.2612 42.1104 54.0726 42.1712 53.9192 42.2926C53.7658 42.4119 53.6497 42.5781 53.5708 42.7912C53.492 43.0043 53.4526 43.2504 53.4526 43.5295C53.4526 43.8129 53.492 44.0579 53.5708 44.2646C53.6518 44.4691 53.7679 44.6278 53.9192 44.7408C54.0726 44.8516 54.2612 44.907 54.4849 44.907Z" fill="#2C88C7"/>
<path d="M16.0398 52H15.5114C15.4801 51.848 15.4254 51.7145 15.3473 51.5994C15.2706 51.4844 15.1768 51.3878 15.0661 51.3097C14.9567 51.2301 14.8352 51.1705 14.7017 51.1307C14.5682 51.0909 14.429 51.071 14.2841 51.071C14.0199 51.071 13.7805 51.1378 13.5661 51.2713C13.353 51.4048 13.1832 51.6016 13.0568 51.8615C12.9318 52.1214 12.8693 52.4403 12.8693 52.8182C12.8693 53.196 12.9318 53.5149 13.0568 53.7749C13.1832 54.0348 13.353 54.2315 13.5661 54.3651C13.7805 54.4986 14.0199 54.5653 14.2841 54.5653C14.429 54.5653 14.5682 54.5455 14.7017 54.5057C14.8352 54.4659 14.9567 54.407 15.0661 54.3288C15.1768 54.2493 15.2706 54.152 15.3473 54.0369C15.4254 53.9205 15.4801 53.7869 15.5114 53.6364H16.0398C16 53.8594 15.9276 54.0589 15.8224 54.2351C15.7173 54.4112 15.5866 54.5611 15.4304 54.6847C15.2741 54.8068 15.0987 54.8999 14.9041 54.9638C14.7109 55.0277 14.5043 55.0597 14.2841 55.0597C13.9119 55.0597 13.581 54.9688 13.2912 54.7869C13.0014 54.6051 12.7734 54.3466 12.6072 54.0114C12.4411 53.6761 12.358 53.2784 12.358 52.8182C12.358 52.358 12.4411 51.9602 12.6072 51.625C12.7734 51.2898 13.0014 51.0312 13.2912 50.8494C13.581 50.6676 13.9119 50.5767 14.2841 50.5767C14.5043 50.5767 14.7109 50.6087 14.9041 50.6726C15.0987 50.7365 15.2741 50.8303 15.4304 50.9538C15.5866 51.076 15.7173 51.2251 15.8224 51.4013C15.9276 51.576 16 51.7756 16.0398 52ZM18.155 55.0682C17.8596 55.0682 17.6003 54.9979 17.3773 54.8572C17.1557 54.7166 16.9824 54.5199 16.8574 54.267C16.7338 54.0142 16.6721 53.7187 16.6721 53.3807C16.6721 53.0398 16.7338 52.7422 16.8574 52.4879C16.9824 52.2337 17.1557 52.0362 17.3773 51.8956C17.6003 51.755 17.8596 51.6847 18.155 51.6847C18.4505 51.6847 18.709 51.755 18.9306 51.8956C19.1536 52.0362 19.3269 52.2337 19.4505 52.4879C19.5755 52.7422 19.638 53.0398 19.638 53.3807C19.638 53.7187 19.5755 54.0142 19.4505 54.267C19.3269 54.5199 19.1536 54.7166 18.9306 54.8572C18.709 54.9979 18.4505 55.0682 18.155 55.0682ZM18.155 54.6165C18.3794 54.6165 18.5641 54.5589 18.709 54.4439C18.8539 54.3288 18.9611 54.1776 19.0307 53.9901C19.1003 53.8026 19.1351 53.5994 19.1351 53.3807C19.1351 53.1619 19.1003 52.9581 19.0307 52.7692C18.9611 52.5803 18.8539 52.4276 18.709 52.3111C18.5641 52.1946 18.3794 52.1364 18.155 52.1364C17.9306 52.1364 17.7459 52.1946 17.601 52.3111C17.4561 52.4276 17.3489 52.5803 17.2793 52.7692C17.2097 52.9581 17.1749 53.1619 17.1749 53.3807C17.1749 53.5994 17.2097 53.8026 17.2793 53.9901C17.3489 54.1776 17.4561 54.3288 17.601 54.4439C17.7459 54.5589 17.9306 54.6165 18.155 54.6165ZM21.6413 55.0682C21.3686 55.0682 21.1278 54.9993 20.919 54.8615C20.7102 54.7223 20.5469 54.5263 20.429 54.2734C20.3111 54.0192 20.2521 53.7188 20.2521 53.3722C20.2521 53.0284 20.3111 52.7301 20.429 52.4773C20.5469 52.2244 20.7109 52.0291 20.9212 51.8913C21.1314 51.7536 21.3743 51.6847 21.6499 51.6847C21.8629 51.6847 22.0313 51.7202 22.1548 51.7912C22.2798 51.8608 22.375 51.9403 22.4403 52.0298C22.5071 52.1179 22.5589 52.1903 22.5959 52.2472H22.6385V50.6364H23.1413V55H22.6555V54.4972H22.5959C22.5589 54.5568 22.5064 54.6321 22.4382 54.723C22.37 54.8125 22.2727 54.8928 22.1463 54.9638C22.0199 55.0334 21.8516 55.0682 21.6413 55.0682ZM21.7095 54.6165C21.9112 54.6165 22.0817 54.5639 22.2209 54.4588C22.3601 54.3523 22.4659 54.2053 22.5384 54.0178C22.6108 53.8288 22.647 53.6108 22.647 53.3636C22.647 53.1193 22.6115 52.9055 22.5405 52.7223C22.4695 52.5376 22.3643 52.3942 22.2251 52.2919C22.0859 52.1882 21.9141 52.1364 21.7095 52.1364C21.4964 52.1364 21.3189 52.1911 21.1768 52.3004C21.0362 52.4084 20.9304 52.5554 20.8594 52.7415C20.7898 52.9261 20.755 53.1335 20.755 53.3636C20.755 53.5966 20.7905 53.8082 20.8615 53.9986C20.9339 54.1875 21.0405 54.3381 21.1811 54.4503C21.3232 54.5611 21.4993 54.6165 21.7095 54.6165ZM24.1321 55V51.7273H24.6349V55H24.1321ZM24.3878 51.1818C24.2898 51.1818 24.2053 51.1484 24.1342 51.0817C24.0646 51.0149 24.0298 50.9347 24.0298 50.8409C24.0298 50.7472 24.0646 50.6669 24.1342 50.6001C24.2053 50.5334 24.2898 50.5 24.3878 50.5C24.4858 50.5 24.5696 50.5334 24.6392 50.6001C24.7102 50.6669 24.7457 50.7472 24.7457 50.8409C24.7457 50.9347 24.7102 51.0149 24.6392 51.0817C24.5696 51.1484 24.4858 51.1818 24.3878 51.1818ZM26.0588 53.0312V55H25.5559V51.7273H26.0417V52.2386H26.0843C26.161 52.0724 26.2775 51.9389 26.4338 51.8381C26.59 51.7358 26.7917 51.6847 27.0389 51.6847C27.2605 51.6847 27.4544 51.7301 27.6206 51.821C27.7868 51.9105 27.916 52.0469 28.0083 52.2301C28.1007 52.4119 28.1468 52.642 28.1468 52.9205V55H27.644V52.9545C27.644 52.6974 27.5772 52.4972 27.4437 52.3537C27.3102 52.2088 27.127 52.1364 26.894 52.1364C26.7335 52.1364 26.59 52.1712 26.4636 52.2408C26.3386 52.3104 26.2399 52.4119 26.1674 52.5455C26.095 52.679 26.0588 52.8409 26.0588 53.0312ZM30.3867 56.2955C30.1438 56.2955 29.935 56.2642 29.7603 56.2017C29.5856 56.1406 29.44 56.0597 29.3235 55.9588C29.2085 55.8594 29.1168 55.7528 29.0487 55.6392L29.4492 55.358C29.4947 55.4176 29.5522 55.4858 29.6218 55.5625C29.6914 55.6406 29.7866 55.7081 29.9073 55.7649C30.0295 55.8232 30.1893 55.8523 30.3867 55.8523C30.6509 55.8523 30.869 55.7884 31.0408 55.6605C31.2127 55.5327 31.2987 55.3324 31.2987 55.0597V54.3949H31.256C31.2191 54.4545 31.1665 54.5284 31.0984 54.6165C31.0316 54.7031 30.935 54.7805 30.8086 54.8487C30.6836 54.9155 30.5146 54.9489 30.3015 54.9489C30.0373 54.9489 29.8001 54.8864 29.5898 54.7614C29.381 54.6364 29.2156 54.4545 29.0934 54.2159C28.9727 53.9773 28.9123 53.6875 28.9123 53.3466C28.9123 53.0114 28.9712 52.7195 29.0891 52.4709C29.207 52.2209 29.3711 52.0277 29.5813 51.8913C29.7915 51.7536 30.0344 51.6847 30.31 51.6847C30.5231 51.6847 30.6921 51.7202 30.8171 51.7912C30.9435 51.8608 31.0401 51.9403 31.1069 52.0298C31.1751 52.1179 31.2276 52.1903 31.2646 52.2472H31.3157V51.7273H31.8015V55.0938C31.8015 55.375 31.7376 55.6037 31.6097 55.7798C31.4833 55.9574 31.3129 56.0874 31.0984 56.1697C30.8853 56.2536 30.6481 56.2955 30.3867 56.2955ZM30.3697 54.4972C30.5714 54.4972 30.7418 54.451 30.881 54.3587C31.0202 54.2663 31.1261 54.1335 31.1985 53.9602C31.271 53.7869 31.3072 53.5795 31.3072 53.3381C31.3072 53.1023 31.2717 52.8942 31.2006 52.7138C31.1296 52.5334 31.0245 52.392 30.8853 52.2898C30.7461 52.1875 30.5742 52.1364 30.3697 52.1364C30.1566 52.1364 29.979 52.1903 29.837 52.2983C29.6964 52.4062 29.5906 52.5511 29.5195 52.733C29.4499 52.9148 29.4151 53.1165 29.4151 53.3381C29.4151 53.5653 29.4506 53.7663 29.5217 53.9411C29.5941 54.1143 29.7006 54.2507 29.8413 54.3501C29.9833 54.4482 30.1594 54.4972 30.3697 54.4972ZM34.6566 55H34.1026L35.7049 50.6364H36.2504L37.8526 55H37.2987L35.9947 51.3267H35.9606L34.6566 55ZM34.8612 53.2955H37.0941V53.7642H34.8612V53.2955ZM39.7937 55.0682C39.4869 55.0682 39.2227 54.9957 39.0011 54.8509C38.7795 54.706 38.609 54.5064 38.4897 54.2521C38.3704 53.9979 38.3107 53.7074 38.3107 53.3807C38.3107 53.0483 38.3718 52.755 38.494 52.5007C38.6175 52.245 38.7894 52.0455 39.0096 51.902C39.2312 51.7571 39.4897 51.6847 39.7852 51.6847C40.0153 51.6847 40.2227 51.7273 40.4073 51.8125C40.592 51.8977 40.7433 52.017 40.8612 52.1705C40.979 52.3239 41.0522 52.5028 41.0806 52.7074H40.5778C40.5394 52.5582 40.4542 52.4261 40.3221 52.3111C40.1914 52.1946 40.0153 52.1364 39.7937 52.1364C39.5977 52.1364 39.4258 52.1875 39.2781 52.2898C39.1317 52.3906 39.0174 52.5334 38.935 52.718C38.854 52.9013 38.8136 53.1165 38.8136 53.3636C38.8136 53.6165 38.8533 53.8366 38.9329 54.0241C39.0138 54.2116 39.1275 54.3572 39.2738 54.4609C39.4215 54.5646 39.5948 54.6165 39.7937 54.6165C39.9244 54.6165 40.043 54.5938 40.1495 54.5483C40.256 54.5028 40.3462 54.4375 40.4201 54.3523C40.494 54.267 40.5465 54.1648 40.5778 54.0455H41.0806C41.0522 54.2386 40.9819 54.4126 40.8697 54.5675C40.7589 54.7209 40.6119 54.843 40.4286 54.9339C40.2468 55.0234 40.0352 55.0682 39.7937 55.0682ZM42.7788 55.0767C42.5714 55.0767 42.3832 55.0376 42.2141 54.9595C42.0451 54.88 41.9109 54.7656 41.8114 54.6165C41.712 54.4659 41.6623 54.2841 41.6623 54.071C41.6623 53.8835 41.6992 53.7315 41.7731 53.6151C41.8469 53.4972 41.9457 53.4048 42.0692 53.3381C42.1928 53.2713 42.3292 53.2216 42.4783 53.1889C42.6289 53.1548 42.7802 53.1278 42.9322 53.108C43.131 53.0824 43.2923 53.0632 43.4158 53.0504C43.5408 53.0362 43.6317 53.0128 43.6886 52.9801C43.7468 52.9474 43.7759 52.8906 43.7759 52.8097V52.7926C43.7759 52.5824 43.7184 52.419 43.6033 52.3026C43.4897 52.1861 43.3171 52.1278 43.0856 52.1278C42.8455 52.1278 42.6573 52.1804 42.521 52.2855C42.3846 52.3906 42.2887 52.5028 42.2333 52.6222L41.756 52.4517C41.8413 52.2528 41.9549 52.098 42.0969 51.9872C42.2404 51.875 42.3967 51.7969 42.5657 51.7528C42.7362 51.7074 42.9038 51.6847 43.0685 51.6847C43.1737 51.6847 43.2944 51.6974 43.4308 51.723C43.5685 51.7472 43.7013 51.7976 43.8292 51.8743C43.9585 51.951 44.0657 52.0668 44.1509 52.2216C44.2362 52.3764 44.2788 52.5838 44.2788 52.8438V55H43.7759V54.5568H43.7504C43.7163 54.6278 43.6594 54.7038 43.5799 54.7848C43.5004 54.8658 43.3945 54.9347 43.2624 54.9915C43.1303 55.0483 42.9691 55.0767 42.7788 55.0767ZM42.8555 54.625C43.0543 54.625 43.2219 54.5859 43.3583 54.5078C43.4961 54.4297 43.5998 54.3288 43.6694 54.2053C43.7404 54.0817 43.7759 53.9517 43.7759 53.8153V53.3551C43.7546 53.3807 43.7077 53.4041 43.6353 53.4254C43.5643 53.4453 43.4819 53.4631 43.3881 53.4787C43.2958 53.4929 43.2056 53.5057 43.1175 53.517C43.0309 53.527 42.9606 53.5355 42.9066 53.5426C42.7759 53.5597 42.6538 53.5874 42.5401 53.6257C42.4279 53.6626 42.337 53.7187 42.2674 53.794C42.1992 53.8679 42.1651 53.9687 42.1651 54.0966C42.1651 54.2713 42.2298 54.4034 42.359 54.4929C42.4897 54.581 42.6552 54.625 42.8555 54.625ZM46.4324 55.0682C46.1596 55.0682 45.9189 54.9993 45.71 54.8615C45.5012 54.7223 45.3379 54.5263 45.22 54.2734C45.1021 54.0192 45.0431 53.7188 45.0431 53.3722C45.0431 53.0284 45.1021 52.7301 45.22 52.4773C45.3379 52.2244 45.502 52.0291 45.7122 51.8913C45.9224 51.7536 46.1653 51.6847 46.4409 51.6847C46.6539 51.6847 46.8223 51.7202 46.9458 51.7912C47.0708 51.8608 47.166 51.9403 47.2314 52.0298C47.2981 52.1179 47.35 52.1903 47.3869 52.2472H47.4295V50.6364H47.9324V55H47.4466V54.4972H47.3869C47.35 54.5568 47.2974 54.6321 47.2292 54.723C47.161 54.8125 47.0637 54.8928 46.9373 54.9638C46.8109 55.0334 46.6426 55.0682 46.4324 55.0682ZM46.5005 54.6165C46.7022 54.6165 46.8727 54.5639 47.0119 54.4588C47.1511 54.3523 47.2569 54.2053 47.3294 54.0178C47.4018 53.8288 47.438 53.6108 47.438 53.3636C47.438 53.1193 47.4025 52.9055 47.3315 52.7223C47.2605 52.5376 47.1554 52.3942 47.0162 52.2919C46.877 52.1882 46.7051 52.1364 46.5005 52.1364C46.2875 52.1364 46.1099 52.1911 45.9679 52.3004C45.8272 52.4084 45.7214 52.5554 45.6504 52.7415C45.5808 52.9261 45.546 53.1335 45.546 53.3636C45.546 53.5966 45.5815 53.8082 45.6525 53.9986C45.725 54.1875 45.8315 54.3381 45.9721 54.4503C46.1142 54.5611 46.2903 54.6165 46.5005 54.6165ZM50.2953 55.0682C49.9799 55.0682 49.7079 54.9986 49.4792 54.8594C49.252 54.7188 49.0765 54.5227 48.9529 54.2713C48.8308 54.0185 48.7697 53.7244 48.7697 53.3892C48.7697 53.054 48.8308 52.7585 48.9529 52.5028C49.0765 52.2457 49.2484 52.0455 49.4686 51.902C49.6902 51.7571 49.9487 51.6847 50.2441 51.6847C50.4146 51.6847 50.5829 51.7131 50.7491 51.7699C50.9153 51.8267 51.0666 51.919 51.2029 52.0469C51.3393 52.1733 51.448 52.3409 51.5289 52.5497C51.6099 52.7585 51.6504 53.0156 51.6504 53.321V53.5341H49.1277V53.0994H51.139C51.139 52.9148 51.1021 52.75 51.0282 52.6051C50.9558 52.4602 50.8521 52.3459 50.7172 52.2621C50.5836 52.1783 50.426 52.1364 50.2441 52.1364C50.0439 52.1364 49.8706 52.1861 49.7243 52.2855C49.5794 52.3835 49.4679 52.5114 49.3897 52.669C49.3116 52.8267 49.2725 52.9957 49.2725 53.1761V53.4659C49.2725 53.7131 49.3152 53.9226 49.4004 54.0945C49.487 54.2649 49.6071 54.3949 49.7605 54.4844C49.9139 54.5724 50.0922 54.6165 50.2953 54.6165C50.4274 54.6165 50.5467 54.598 50.6532 54.5611C50.7612 54.5227 50.8542 54.4659 50.9324 54.3906C51.0105 54.3139 51.0708 54.2187 51.1135 54.1051L51.5993 54.2415C51.5481 54.4062 51.4622 54.5511 51.3414 54.6761C51.2207 54.7997 51.0716 54.8963 50.894 54.9659C50.7164 55.0341 50.5169 55.0682 50.2953 55.0682ZM52.4153 55V51.7273H52.9011V52.2386H52.9437C53.0119 52.0639 53.122 51.9283 53.274 51.8317C53.426 51.7337 53.6085 51.6847 53.8216 51.6847C54.0375 51.6847 54.2172 51.7337 54.3606 51.8317C54.5055 51.9283 54.6184 52.0639 54.6994 52.2386H54.7335C54.8173 52.0696 54.943 51.9354 55.1106 51.8359C55.2782 51.7351 55.4792 51.6847 55.7136 51.6847C56.0062 51.6847 56.2456 51.7763 56.4316 51.9595C56.6177 52.1413 56.7108 52.4247 56.7108 52.8097V55H56.2079V52.8097C56.2079 52.5682 56.1419 52.3956 56.0098 52.2919C55.8777 52.1882 55.7221 52.1364 55.5431 52.1364C55.313 52.1364 55.1348 52.206 55.0083 52.3452C54.8819 52.483 54.8187 52.6577 54.8187 52.8693V55H54.3074V52.7585C54.3074 52.5724 54.247 52.4226 54.1262 52.3089C54.0055 52.1939 53.85 52.1364 53.6596 52.1364C53.5289 52.1364 53.4068 52.1712 53.2931 52.2408C53.1809 52.3104 53.09 52.407 53.0204 52.5305C52.9522 52.6527 52.9181 52.794 52.9181 52.9545V55H52.4153ZM57.8368 56.2273C57.7516 56.2273 57.6756 56.2202 57.6088 56.206C57.5421 56.1932 57.4959 56.1804 57.4703 56.1676L57.5982 55.7244C57.7203 55.7557 57.8283 55.767 57.9221 55.7585C58.0158 55.75 58.0989 55.7081 58.1713 55.6328C58.2452 55.5589 58.3127 55.4389 58.3738 55.2727L58.4675 55.017L57.2573 51.7273H57.8027L58.7061 54.3352H58.7402L59.6436 51.7273H60.1891L58.7999 55.4773C58.7374 55.6463 58.66 55.7862 58.5676 55.897C58.4753 56.0092 58.3681 56.0923 58.2459 56.1463C58.1252 56.2003 57.9888 56.2273 57.8368 56.2273Z" fill="#5CADD6"/>
</svg>
